<?xml version="1.0" encoding="utf-8"?>
<!-- Generator: Adobe Illustrator 24.1.1, SVG Export Plug-In . SVG Version: 6.00 Build 0)  -->
<svg version="1.1" id="Layer_1" xmlns="http://www.w3.org/2000/svg" xmlns:xlink="http://www.w3.org/1999/xlink" x="0px" y="0px"
	 viewBox="0 0 116 61" style="enable-background:new 0 0 116 61;" xml:space="preserve">
<style type="text/css">
	.st0{fill:#727B9A;}
</style>
<path class="st0" d="M22.2,17.7l-0.1,0.2c-0.3,0.4-0.5,0.3-0.5,0.3c-0.1,0-0.2-0.2-0.2-0.2c-0.2-0.5-0.1-1.3-0.1-1.3
	c0-0.2-0.1,0-0.1,0l0,0.1c-0.1,0.2-0.4,0.7-0.4,0.7c-0.2,0.3-0.3,0.2-0.3,0.2c-0.2,0-0.3-0.6-0.3-0.6c-0.1-0.4-0.2-1.2-0.2-1.2
	c-0.1-0.3-0.1,0.1-0.1,0.1c0,0.1-0.1,0.6-0.1,0.6c0,0.2-0.2,0.7-0.2,0.7c-0.1,0.4-0.2,0.4-0.2,0.4c-0.1,0-0.3-0.2-0.3-0.2
	c-0.2-0.3-0.4-0.7-0.4-0.7c-0.1-0.2-0.1,0.1-0.1,0.1c0,0.3-0.1,0.8-0.1,0.8c0,0.5-0.3,0.6-0.3,0.6C18.1,18.1,18,18,18,18
	c-0.2-0.1-0.4-0.4-0.4-0.4c0,0,0-0.1-0.1-0.1c-0.1,0,0,0.2,0,0.3c0,0,0.4,1.4,0.4,1.4c2-0.8,3.9,0,3.9,0S22.3,17.9,22.2,17.7
	C22.4,17.5,22.2,17.7,22.2,17.7z"/>
<path class="st0" d="M8.1,33.8c0,4.9-1.4,7.4-4.3,7.4c-1.1,0-2-0.2-2.6-0.7l-0.3-0.2V44L1,44c0.7,0.3,1.7,0.5,2.8,0.5
	c2.4,0,4.4-1,5.8-2.9c1.4-1.9,2.2-4.5,2.2-7.9V15.5H8.1V33.8z"/>
<rect x="18.1" y="23.6" class="st0" width="3.6" height="20.5"/>
<path class="st0" d="M32.4,17.6l-3.6,1.2v4.8h-3.5v3.1h3.5v11.7c0,4,1.8,6.1,5.5,6.1c1.3,0,2.3-0.2,3.1-0.7l0.1-0.1v-3.2l-0.3,0.2
	c-0.6,0.4-1.2,0.6-2,0.6c-1,0-1.7-0.3-2.1-0.8c-0.4-0.5-0.6-1.5-0.6-2.8V26.7h5.1v-3.1h-5.1V17.6z"/>
<path class="st0" d="M49.2,23.1c-2.7,0-4.9,1-6.7,3c-1.8,2-2.7,4.6-2.7,7.8c0,3.3,0.8,6,2.5,7.8c1.7,1.9,3.9,2.8,6.8,2.8
	c2.9,0,5.3-0.7,7.1-2l0.1-0.1V39l-0.3,0.2c-1.9,1.5-3.9,2.2-6.1,2.2c-1.9,0-3.5-0.6-4.6-1.8c-1.1-1.1-1.7-2.8-1.7-4.9h14.2v-1.9
	c0-3.1-0.7-5.5-2.2-7.2C53.9,24,51.8,23.1,49.2,23.1z M43.5,31.7c0.3-1.6,0.9-2.9,1.9-3.9c1-1,2.3-1.6,3.7-1.6
	c1.5,0,2.7,0.5,3.5,1.5c0.8,1,1.3,2.3,1.3,4H43.5z"/>
<path class="st0" d="M66.4,33.8c0,4.9-1.4,7.4-4.3,7.4c-1.1,0-2-0.2-2.6-0.7l-0.3-0.2V44l0.1,0.1c0.7,0.3,1.7,0.5,2.8,0.5
	c2.4,0,4.4-1,5.8-2.9c1.4-1.9,2.2-4.5,2.2-7.9V15.5h-3.7V33.8z"/>
<path class="st0" d="M83.4,23.1c-2.6,0-4.9,0.6-6.9,1.9l-0.1,0.1v3.8l0.3-0.3c1.9-1.6,4.1-2.4,6.4-2.4c2.6,0,3.9,1.6,3.9,4.8
	l-5.9,0.8c-4.5,0.6-6.8,2.9-6.8,6.7c0,1.8,0.6,3.3,1.8,4.4c1.2,1.1,2.8,1.6,4.8,1.6c2.6,0,4.6-1.1,6.1-3.2v2.8h3.6V30.8
	C90.7,25.7,88.2,23.1,83.4,23.1z M87.1,35.7c0,1.7-0.5,3-1.5,4.1c-1,1.1-2.3,1.6-3.8,1.6c-1.1,0-2-0.3-2.7-0.9c-0.7-0.6-1-1.3-1-2.3
	c0-1.3,0.4-2.2,1.1-2.7h0c0.7-0.5,1.8-0.9,3.3-1.1l4.6-0.6V35.7z"/>
<path class="st0" d="M112.5,26c-1-1.1-2.3-1.9-3.8-2.4c-0.1,0-0.2-0.1-0.3-0.1l-0.1,0c-0.4-0.1-0.7-0.2-1.1-0.2l-0.1,0
	c-0.1,0-0.2,0-0.3,0c0,0-0.1,0-0.1,0c-0.1,0-0.2,0-0.3,0c0,0-0.1,0-0.1,0l0,0c-0.3,0-0.5,0-0.8,0c-3.2,0-5.7,1-7.6,2.9
	c-1.9,1.9-2.8,4.6-2.8,8c0,3.1,0.9,5.7,2.7,7.6c1.8,1.9,4.2,2.9,7.2,2.9c3.1,0,5.6-1,7.4-3c1.5-1.6,2.4-3.7,2.7-6.2l0.1-1.8
	C115.1,30.3,114.2,27.8,112.5,26L112.5,26z M109.8,39.5c-1.1,1.3-2.6,2-4.7,2c-2,0-3.6-0.7-4.8-2c-1.2-1.3-1.8-3.2-1.8-5.5
	c0-2.4,0.6-4.3,1.8-5.7c0.6-0.7,1.3-1.2,2.1-1.5c0.8-0.3,1.7-0.5,2.7-0.5c2,0,3.6,0.7,4.6,2c0.7,0.9,1.2,2.1,1.5,3.5
	c0.1,0.7,0.2,1.4,0.2,2.2C111.4,36.3,110.9,38.2,109.8,39.5z"/>
</svg>
