<?xml version="1.0" encoding="utf-8"?>
<!-- Generator: Adobe Illustrator 24.3.0, SVG Export Plug-In . SVG Version: 6.00 Build 0)  -->
<svg version="1.1" id="Layer_1" xmlns="http://www.w3.org/2000/svg" xmlns:xlink="http://www.w3.org/1999/xlink" x="0px" y="0px"
	 viewBox="0 0 70 70" style="enable-background:new 0 0 70 70;" xml:space="preserve">
<style type="text/css">
	.st0{fill:#FFC7EF;}
	.st1{fill:#FFFFFF;}
</style>
<ellipse class="st0" cx="34.5" cy="35" rx="34.5" ry="34.5"/>
<ellipse class="st1" cx="34.5" cy="29.4" rx="13.4" ry="17.4"/>
<path class="st1" d="M34.5,48c-11.2,0-21.1,3.4-26.9,8.6c6.3,7.9,16,12.9,26.9,12.9c10.9,0,20.6-5,26.9-12.9
	C55.6,51.5,45.7,48,34.5,48z"/>
<path class="st1" d="M35.3,57h-1.6c-3.2,0-5.9-2.6-5.9-5.8V40.9c0-3.2,2.6-5.8,5.9-5.8h1.6c3.2,0,5.8,2.6,5.8,5.8v10.2
	C41.1,54.3,38.5,57,35.3,57z"/>
<path class="st1" d="M22.9,30.2c0.8,2.3,0.5,4.4-0.7,4.8s-2.7-1.1-3.5-3.4c-0.8-2.3-0.5-4.4,0.7-4.8C20.5,26.4,22.1,27.9,22.9,30.2z
	"/>
<ellipse transform="matrix(0.328 -0.9447 0.9447 0.328 3.1652 66.2605)" class="st1" cx="48.2" cy="30.9" rx="4.3" ry="2.2"/>
<path class="st1" d="M22.7,30.1c-1.8-3.2-3.5-6.5-3.5-10.2c0.1-3.6,2.9-7.4,6.5-7.3c0.6,0,1.3,0.2,1.9,0.1c1.3-0.2,2.2-1.2,3.2-2
	c2.3-1.7,5.5-2.1,8.1-1c1.6,0.7,3,1.8,4.6,2.6c3,1.4,6.6,1.3,9.5-0.4c-0.6,1.1-1.6,2-2.8,2.5c1.1,0.4,2.3,0.3,3.3-0.1
	c-0.6,1.2-1.7,2.1-2.9,2.6c0.9,0.1,1.8,0.1,2.8,0.2c-0.8,1.1-1.9,2-3.2,2.5c0.7,0,1.4,0,2.2,0.1c-0.5,1.6-1.9,2.9-3.6,3.3
	c0.5,0,0.9,0,1.4,0c-1.5,2.2-3,4.4-4.6,6.6c-0.4,0.6-0.9,1.3-1.5,1.7c-0.5,0.3-1.2,0.5-1.8,0.6c-4.5,1-9.2,1.3-13.8,0.9
	c-1.6-0.1-3.2-0.4-4.5-1.4s-1.9-2.9-1.1-4.2"/>
<path class="st1" d="M25.8,51.3c0.1-1.8,0.3-3.6,0.7-5.4c0.9,1,2.4,1.2,3.8,1.2c2.1,0.1,4.1,0.2,6.2,0.3c0.2,1.4,0.4,3.1-0.6,4.1
	c-0.5,0.5-1.1,0.7-1.8,0.9c-1.4,0.4-2.8,0.6-4.3,0.6c-1.7,0-3.8-0.5-4.3-2.1c0.2-0.2,0.4-0.3,0.6-0.5"/>
<path class="st1" d="M43.1,51.3c-0.1-1.8-0.3-3.6-0.7-5.4c-0.9,1-2.4,1.2-3.8,1.2c-2.1,0.1-4.1,0.2-6.2,0.3
	c-0.2,1.4-0.4,3.1,0.6,4.1c0.5,0.5,1.1,0.7,1.8,0.9c1.4,0.4,2.8,0.6,4.3,0.6c1.7,0,3.8-0.5,4.3-2.1c-0.2-0.2-0.4-0.3-0.6-0.5"/>
</svg>
