<?xml version="1.0" encoding="utf-8"?>
<!-- Generator: Adobe Illustrator 24.1.1, SVG Export Plug-In . SVG Version: 6.00 Build 0)  -->
<svg version="1.1" id="Layer_1" xmlns="http://www.w3.org/2000/svg" xmlns:xlink="http://www.w3.org/1999/xlink" x="0px" y="0px"
	 viewBox="0 0 70 70" style="enable-background:new 0 0 70 70;" xml:space="preserve">
<style type="text/css">
	.st0{fill:#E9ECEF;}
	.st1{fill:#FFFFFF;}
</style>
<ellipse transform="matrix(0.2235 -0.9747 0.9747 0.2235 -7.6652 61.3585)" class="st0" cx="34.68" cy="35.49" rx="34.68" ry="34.68"/>
<path class="st1" d="M41.89,48.95v-2.12c2.42-2.13,4.31-5.28,5.36-9.03c0.09,0.05,0.18,0.1,0.28,0.12c1.22,0.21,2.54-2.05,2.95-5.05
	c0.4-3-0.26-5.59-1.49-5.8c-0.36-0.06-0.72,0.09-1.07,0.41c-0.02-0.17-0.05-0.34-0.08-0.52c0.14-0.67,0.28-1.34,0.42-2
	c0.44-2.12,0.88-4.36,0.19-6.41c-0.36-1.07-1.01-2.02-1.76-2.85c-2.38-2.64-5.82-4.2-9.34-4.66c-3.53-0.46-7.13,0.13-10.49,1.29
	c-2.01,0.69-4.31,2.23-3.9,4.31c-1.03-0.38-2.19,0.43-2.59,1.46c-0.4,1.02-0.24,2.17-0.07,3.25c0.3,1.98,0.6,3.96,0.9,5.94
	c-0.27-0.18-0.55-0.27-0.83-0.22c-1.22,0.21-1.89,2.81-1.49,5.8c0.4,3,1.72,5.26,2.95,5.05c0.1-0.02,0.19-0.07,0.28-0.12
	c1.05,3.75,2.94,6.91,5.36,9.03v2.07c-8.42,0.86-15.82,3.25-21.11,6.6c6.28,8.87,16.62,14.67,28.31,14.67
	c11.61,0,21.89-5.71,28.18-14.48C57.64,52.3,50.29,49.87,41.89,48.95z"/>
</svg>
